<svg width="20" height="20" viewBox="0 0 20 20" fill="none" xmlns="http://www.w3.org/2000/svg">
<path d="M3.33329 6.66667V15.8333C3.33329 16.2754 3.50889 16.6993 3.82145 17.0118C4.13401 17.3244 4.55793 17.5 4.99996 17.5H15C15.442 17.5 15.8659 17.3244 16.1785 17.0118C16.491 16.6993 16.6666 16.2754 16.6666 15.8333V6.66667M7.91663 14.1667L12.0833 10M7.91663 10L12.0833 14.1667M2.49996 2.5H17.5C17.9602 2.5 18.3333 2.8731 18.3333 3.33333V5.83333C18.3333 6.29357 17.9602 6.66667 17.5 6.66667H2.49996C2.03972 6.66667 1.66663 6.29357 1.66663 5.83333V3.33333C1.66663 2.8731 2.03972 2.5 2.49996 2.5Z" stroke="#2563EB" stroke-width="2" stroke-linecap="round" stroke-linejoin="round"/>
</svg>
