<svg width="24" height="30" viewBox="0 0 24 30" fill="none" xmlns="http://www.w3.org/2000/svg">
<path d="M8.83333 15.5C9.29357 15.5 9.66667 15.1269 9.66667 14.6667C9.66667 14.2064 9.29357 13.8333 8.83333 13.8333C8.3731 13.8333 8 14.2064 8 14.6667C8 15.1269 8.3731 15.5 8.83333 15.5Z" stroke="#162456" stroke-width="2" stroke-linecap="round" stroke-linejoin="round"/>
<path d="M8.83333 9.66667C9.29357 9.66667 9.66667 9.29357 9.66667 8.83333C9.66667 8.3731 9.29357 8 8.83333 8C8.3731 8 8 8.3731 8 8.83333C8 9.29357 8.3731 9.66667 8.83333 9.66667Z" stroke="#162456" stroke-width="2" stroke-linecap="round" stroke-linejoin="round"/>
<path d="M8.83333 21.3333C9.29357 21.3333 9.66667 20.9602 9.66667 20.5C9.66667 20.0398 9.29357 19.6667 8.83333 19.6667C8.3731 19.6667 8 20.0398 8 20.5C8 20.9602 8.3731 21.3333 8.83333 21.3333Z" stroke="#162456" stroke-width="2" stroke-linecap="round" stroke-linejoin="round"/>
<path d="M14.5001 15.5C14.9603 15.5 15.3334 15.1269 15.3334 14.6667C15.3334 14.2064 14.9603 13.8333 14.5001 13.8333C14.0398 13.8333 13.6667 14.2064 13.6667 14.6667C13.6667 15.1269 14.0398 15.5 14.5001 15.5Z" stroke="#162456" stroke-width="2" stroke-linecap="round" stroke-linejoin="round"/>
<path d="M14.5001 9.66667C14.9603 9.66667 15.3334 9.29357 15.3334 8.83333C15.3334 8.3731 14.9603 8 14.5001 8C14.0398 8 13.6667 8.3731 13.6667 8.83333C13.6667 9.29357 14.0398 9.66667 14.5001 9.66667Z" stroke="#162456" stroke-width="2" stroke-linecap="round" stroke-linejoin="round"/>
<path d="M14.5001 21.3333C14.9603 21.3333 15.3334 20.9602 15.3334 20.5C15.3334 20.0398 14.9603 19.6667 14.5001 19.6667C14.0398 19.6667 13.6667 20.0398 13.6667 20.5C13.6667 20.9602 14.0398 21.3333 14.5001 21.3333Z" stroke="#162456" stroke-width="2" stroke-linecap="round" stroke-linejoin="round"/>
</svg>
