<svg width="20" height="20" viewBox="0 0 20 20" fill="none" xmlns="http://www.w3.org/2000/svg">
<g id="store" clip-path="url(#clip0_203_4315)">
<path id="Vector" d="M1.66669 5.83333L5.34169 2.15833C5.49674 2.00236 5.68112 1.87861 5.88421 1.79423C6.08731 1.70985 6.30509 1.66649 6.52502 1.66667H13.475C13.6949 1.66649 13.9127 1.70985 14.1158 1.79423C14.3189 1.87861 14.5033 2.00236 14.6584 2.15833L18.3334 5.83333M1.66669 5.83333H18.3334M1.66669 5.83333V8.33333C1.66669 8.77536 1.84228 9.19928 2.15484 9.51184C2.4674 9.8244 2.89133 10 3.33335 10M18.3334 5.83333V8.33333C18.3334 8.77536 18.1578 9.19928 17.8452 9.51184C17.5326 9.8244 17.1087 10 16.6667 10M3.33335 10V16.6667C3.33335 17.1087 3.50895 17.5326 3.82151 17.8452C4.13407 18.1577 4.55799 18.3333 5.00002 18.3333H15C15.442 18.3333 15.866 18.1577 16.1785 17.8452C16.4911 17.5326 16.6667 17.1087 16.6667 16.6667V10M3.33335 10C3.82024 9.9732 4.28525 9.78895 4.65835 9.475C4.75779 9.40315 4.87734 9.36447 5.00002 9.36447C5.1227 9.36447 5.24225 9.40315 5.34169 9.475C5.7148 9.78895 6.1798 9.9732 6.66669 10C7.15357 9.9732 7.61858 9.78895 7.99169 9.475C8.09112 9.40315 8.21068 9.36447 8.33335 9.36447C8.45603 9.36447 8.57559 9.40315 8.67502 9.475C9.04813 9.78895 9.51313 9.9732 10 10C10.4869 9.9732 10.9519 9.78895 11.325 9.475C11.4245 9.40315 11.544 9.36447 11.6667 9.36447C11.7894 9.36447 11.9089 9.40315 12.0084 9.475C12.3815 9.78895 12.8465 9.9732 13.3334 10C13.8202 9.9732 14.2852 9.78895 14.6584 9.475C14.7578 9.40315 14.8773 9.36447 15 9.36447C15.1227 9.36447 15.2423 9.40315 15.3417 9.475C15.7148 9.78895 16.1798 9.9732 16.6667 10M12.5 18.3333V15C12.5 14.558 12.3244 14.134 12.0119 13.8215C11.6993 13.5089 11.2754 13.3333 10.8334 13.3333H9.16669C8.72466 13.3333 8.30074 13.5089 7.98818 13.8215C7.67562 14.134 7.50002 14.558 7.50002 15V18.3333" stroke="#193CB8" stroke-width="2" stroke-linecap="round" stroke-linejoin="round"/>
</g>
<defs>
<clipPath id="clip0_203_4315">
<rect width="20" height="20" fill="white"/>
</clipPath>
</defs>
</svg>
