<svg width="20" height="20" viewBox="0 0 20 20" fill="none" xmlns="http://www.w3.org/2000/svg">
<g id="book-open">
<path id="Vector" d="M10 5.83333V17.5M10 5.83333C10 4.94928 9.64883 4.10143 9.02371 3.47631C8.39859 2.85119 7.55074 2.5 6.66669 2.5H2.50002C2.27901 2.5 2.06704 2.5878 1.91076 2.74408C1.75448 2.90036 1.66669 3.11232 1.66669 3.33333V14.1667C1.66669 14.3877 1.75448 14.5996 1.91076 14.7559C2.06704 14.9122 2.27901 15 2.50002 15H7.50002C8.16306 15 8.79895 15.2634 9.26779 15.7322C9.73663 16.2011 10 16.837 10 17.5M10 5.83333C10 4.94928 10.3512 4.10143 10.9763 3.47631C11.6015 2.85119 12.4493 2.5 13.3334 2.5H17.5C17.721 2.5 17.933 2.5878 18.0893 2.74408C18.2456 2.90036 18.3334 3.11232 18.3334 3.33333V14.1667C18.3334 14.3877 18.2456 14.5996 18.0893 14.7559C17.933 14.9122 17.721 15 17.5 15H12.5C11.837 15 11.2011 15.2634 10.7323 15.7322C10.2634 16.2011 10 16.837 10 17.5" stroke="#193CB8" stroke-width="1.66667" stroke-linecap="round" stroke-linejoin="round"/>
</g>
</svg>
