<svg width="20" height="21" viewBox="0 0 20 21" fill="none" xmlns="http://www.w3.org/2000/svg">
<g id="pipette">
<path id="Vector" d="M1.66699 18.8333L2.50033 18M2.50033 18H5.00033L12.5003 10.5M2.50033 18V15.5L10.0003 7.99996M12.5004 5.50003L15.3337 2.66669C15.6652 2.33517 16.1149 2.14893 16.5837 2.14893C17.0526 2.14893 17.5022 2.33517 17.8337 2.66669C18.1652 2.99821 18.3515 3.44785 18.3515 3.91669C18.3515 4.38553 18.1652 4.83517 17.8337 5.16669L15.0004 8.00003L15.3337 8.33336C15.4979 8.49751 15.6281 8.69239 15.7169 8.90686C15.8058 9.12134 15.8515 9.35121 15.8515 9.58336C15.8515 9.81551 15.8058 10.0454 15.7169 10.2599C15.6281 10.4743 15.4979 10.6692 15.3337 10.8334C15.1696 10.9975 14.9747 11.1277 14.7602 11.2166C14.5457 11.3054 14.3159 11.3511 14.0837 11.3511C13.8516 11.3511 13.6217 11.3054 13.4072 11.2166C13.1928 11.1277 12.9979 10.9975 12.8337 10.8334L9.66706 7.66669C9.50291 7.50254 9.37269 7.30766 9.28386 7.09319C9.19502 6.87871 9.14929 6.64884 9.14929 6.41669C9.14929 6.18455 9.19502 5.95467 9.28386 5.7402C9.37269 5.52572 9.50291 5.33085 9.66706 5.16669C9.83121 5.00254 10.0261 4.87233 10.2406 4.78349C10.455 4.69465 10.6849 4.64893 10.9171 4.64893C11.1492 4.64893 11.3791 4.69465 11.5936 4.78349C11.808 4.87233 12.0029 5.00254 12.1671 5.16669L12.5004 5.50003Z" stroke="white" stroke-width="2" stroke-linecap="round" stroke-linejoin="round"/>
</g>
</svg>
