<svg width="13" height="13" viewBox="0 0 13 13" fill="none" xmlns="http://www.w3.org/2000/svg">
<path id="Vector" d="M12.8918 7.26532L11.2861 7.07281C11.1528 8.18541 10.6412 9.21777 9.83742 9.99559C9.03368 10.7734 7.98714 11.249 6.8745 11.3421C5.76187 11.4352 4.65131 11.1401 3.73034 10.5066C2.80938 9.8731 2.13443 8.94003 1.81947 7.86493C1.50451 6.78984 1.56883 5.63859 2.00158 4.60558C2.43432 3.57258 3.20898 2.72109 4.19474 2.19491C5.1805 1.66873 6.31697 1.50009 7.41226 1.71746C8.50755 1.93483 9.49454 2.5249 10.2066 3.38804H8.18778V5.012H13V0.182061H11.382V2.27495C10.5872 1.33345 9.53877 0.641923 8.36236 0.28325C7.13759 -0.0921635 5.82938 -0.0944519 4.6033 0.276675C3.37723 0.647801 2.28842 1.37566 1.47466 2.36813C0.660903 3.3606 0.15879 4.57306 0.0318692 5.85206C-0.0950517 7.13107 0.158925 8.41911 0.761656 9.55318C1.06359 10.1237 1.44717 10.6467 1.90016 11.1056C2.75969 11.9655 3.84285 12.5654 5.02592 12.8368C6.20899 13.1082 7.44427 13.0401 8.59063 12.6404C9.73699 12.2406 10.7482 11.5253 11.5088 10.5761C12.2694 9.62699 12.7486 8.48226 12.8918 7.27272V7.26532Z" fill="#242527"/>
</svg>
