<svg width="156" height="40" viewBox="0 0 156 40" fill="none" xmlns="http://www.w3.org/2000/svg">
<rect width="40" height="40" rx="8" fill="#EFF6FF"/>
<path d="M23.3892 31.5953C21.2795 33.7229 17.8419 33.7229 15.7322 31.5953L8.5823 24.385C6.47257 22.2574 6.47257 18.7907 8.5823 16.6631L15.7322 9.45272C17.8419 7.32513 21.2759 7.32513 23.3892 9.45272L24.5339 10.6071C25.1432 11.2216 25.1432 12.2197 24.5339 12.8341C23.9245 13.4486 22.9348 13.4486 22.3255 12.8341L21.1773 11.6762C20.2827 10.774 18.8316 10.774 17.937 11.6762L10.7871 18.8866C9.89252 19.7888 9.89252 21.2557 10.7871 22.1579L17.937 29.3683C18.8316 30.2705 20.2862 30.2705 21.1808 29.3683L28.3307 22.1579C29.2253 21.2557 29.2253 19.7888 28.3307 18.8866L27.186 17.7322C26.5767 17.1178 26.5767 16.1197 27.186 15.5052C27.7953 14.8907 28.785 14.8907 29.3944 15.5052L30.5426 16.6631C32.6523 18.7907 32.6523 22.2538 30.5426 24.3814L23.3927 31.5918L23.3892 31.5953Z" fill="url(#paint0_linear_203_3779)"/>
<path d="M18.0286 24.4773C17.4017 25.1096 16.3556 25.0847 15.697 24.4205C15.0383 23.7563 15.0137 22.7014 15.6406 22.0691L21.5014 16.1587C22.1283 15.5265 23.1744 15.5514 23.833 16.2156C24.4916 16.8798 24.5163 17.9347 23.8894 18.5669L18.0286 24.4773Z" fill="#162456"/>
<path d="M60.84 29H49.944V11.456H60.84V14.288H51.936L53.016 13.304V18.8H60.024V21.512H53.016V27.152L51.936 26.168H60.84V29ZM66.5595 29L61.8555 17.144H64.9755L67.0395 22.592C67.2955 23.296 67.5115 23.944 67.6875 24.536C67.8795 25.112 68.0155 25.56 68.0955 25.88C68.1755 25.512 68.3115 25.04 68.5035 24.464C68.7115 23.872 68.9435 23.248 69.1995 22.592L71.3595 17.144H74.3835L69.4395 29H66.5595ZM80.8082 29.312C79.6402 29.312 78.6002 29.048 77.6882 28.52C76.7922 27.976 76.0882 27.24 75.5762 26.312C75.0642 25.368 74.8082 24.288 74.8082 23.072C74.8082 21.84 75.0562 20.752 75.5522 19.808C76.0482 18.864 76.7442 18.128 77.6402 17.6C78.5362 17.056 79.5602 16.784 80.7122 16.784C81.9122 16.784 82.9442 17.04 83.8082 17.552C84.6722 18.048 85.3362 18.744 85.8002 19.64C86.2802 20.536 86.5202 21.608 86.5202 22.856V23.744L76.3442 23.768L76.3922 21.896H83.6162C83.6162 21.08 83.3522 20.424 82.8242 19.928C82.3122 19.432 81.6162 19.184 80.7362 19.184C80.0482 19.184 79.4642 19.328 78.9842 19.616C78.5202 19.904 78.1682 20.336 77.9282 20.912C77.6882 21.488 77.5682 22.192 77.5682 23.024C77.5682 24.304 77.8402 25.272 78.3842 25.928C78.9442 26.584 79.7682 26.912 80.8562 26.912C81.6562 26.912 82.3122 26.76 82.8242 26.456C83.3522 26.152 83.6962 25.72 83.8562 25.16H86.5682C86.3122 26.456 85.6722 27.472 84.6482 28.208C83.6402 28.944 82.3602 29.312 80.8082 29.312ZM91.7916 29H88.8636V17.144H91.5756L91.8156 18.68C92.1836 18.088 92.7036 17.624 93.3756 17.288C94.0636 16.952 94.8076 16.784 95.6076 16.784C97.0956 16.784 98.2156 17.224 98.9676 18.104C99.7356 18.984 100.12 20.184 100.12 21.704V29H97.1916V22.4C97.1916 21.408 96.9676 20.672 96.5196 20.192C96.0716 19.696 95.4636 19.448 94.6956 19.448C93.7836 19.448 93.0716 19.736 92.5596 20.312C92.0476 20.888 91.7916 21.656 91.7916 22.616V29ZM101.82 17.144H109.308V19.592H101.82V17.144ZM107.028 29H104.1V13.448H107.028V29ZM114.657 11.456V29H111.585V11.456H114.657ZM112.113 29V26.168H121.977V29H112.113ZM124.067 29V17.144H126.995V29H124.067ZM125.507 14.768C125.011 14.768 124.587 14.6 124.235 14.264C123.899 13.912 123.731 13.488 123.731 12.992C123.731 12.496 123.899 12.08 124.235 11.744C124.587 11.408 125.011 11.24 125.507 11.24C126.003 11.24 126.419 11.408 126.755 11.744C127.107 12.08 127.283 12.496 127.283 12.992C127.283 13.488 127.107 13.912 126.755 14.264C126.419 14.6 126.003 14.768 125.507 14.768ZM132.948 29H130.02V17.144H132.732L132.972 18.68C133.34 18.088 133.86 17.624 134.532 17.288C135.22 16.952 135.964 16.784 136.764 16.784C138.252 16.784 139.372 17.224 140.124 18.104C140.892 18.984 141.276 20.184 141.276 21.704V29H138.348V22.4C138.348 21.408 138.124 20.672 137.676 20.192C137.228 19.696 136.62 19.448 135.852 19.448C134.94 19.448 134.228 19.736 133.716 20.312C133.204 20.888 132.948 21.656 132.948 22.616V29ZM147.105 29H144.201V11.144H147.105V22.112L151.713 17.144H155.385L150.873 21.848L155.289 29H151.929L148.833 24.008L147.105 25.808V29Z" fill="#EFF6FF"/>
<defs>
<linearGradient id="paint0_linear_203_3779" x1="19.5607" y1="7.85436" x2="19.5607" y2="33.1937" gradientUnits="userSpaceOnUse">
<stop stop-color="#193CB8"/>
<stop offset="1" stop-color="#8200DB"/>
</linearGradient>
</defs>
</svg>
