<svg width="123" height="40" viewBox="0 0 123 40" fill="none" xmlns="http://www.w3.org/2000/svg">
<rect width="40" height="40" rx="8" fill="url(#paint0_linear_500_6753)"/>
<path d="M23.3892 31.5953C21.2795 33.7229 17.8419 33.7229 15.7322 31.5953L8.5823 24.385C6.47257 22.2574 6.47257 18.7907 8.5823 16.6631L15.7322 9.45272C17.8419 7.32513 21.2759 7.32513 23.3892 9.45272L24.5339 10.6071C25.1432 11.2216 25.1432 12.2197 24.5339 12.8341C23.9245 13.4486 22.9348 13.4486 22.3255 12.8341L21.1773 11.6762C20.2827 10.774 18.8316 10.774 17.937 11.6762L10.7871 18.8866C9.89252 19.7888 9.89252 21.2557 10.7871 22.1579L17.937 29.3683C18.8316 30.2705 20.2862 30.2705 21.1808 29.3683L28.3307 22.1579C29.2253 21.2557 29.2253 19.7888 28.3307 18.8866L27.186 17.7322C26.5767 17.1178 26.5767 16.1197 27.186 15.5052C27.7953 14.8907 28.785 14.8907 29.3944 15.5052L30.5426 16.6631C32.6523 18.7907 32.6523 22.2538 30.5426 24.3814L23.3927 31.5918L23.3892 31.5953Z" fill="#EFF6FF"/>
<path d="M18.0286 24.4773C17.4016 25.1096 16.3556 25.0847 15.6969 24.4205C15.0383 23.7563 15.0136 22.7014 15.6406 22.0691L21.5013 16.1587C22.1283 15.5265 23.1743 15.5514 23.833 16.2156C24.4916 16.8798 24.5163 17.9347 23.8893 18.5669L18.0286 24.4773Z" fill="#EFF6FF"/>
<path d="M55.6746 26.2318H48V13.7682H55.6746V15.7785H49.4018L50.1626 15.0788V18.9824H55.1005V20.9075H50.1626V24.9141L49.4018 24.2143H55.6746V26.2247V26.2318ZM59.7145 26.2318L56.4002 17.8102H58.598L60.0526 21.6818C60.2322 22.1826 60.3872 22.6408 60.5175 23.0529C60.6478 23.4684 60.7394 23.7881 60.7958 24.0154C60.8521 23.7526 60.9507 23.4152 61.0916 22.9996C61.2325 22.584 61.3945 22.1436 61.5742 21.6783L63.0957 17.8067H65.2266L61.7432 26.2283H59.7145V26.2318ZM69.756 26.452C68.9318 26.452 68.2027 26.2602 67.5652 25.8802C66.9277 25.5001 66.4311 24.978 66.0684 24.3102C65.7091 23.646 65.5259 22.8824 65.5259 22.0157C65.5259 21.149 65.7021 20.3676 66.0507 19.6963C66.3994 19.025 66.889 18.4993 67.523 18.1193C68.1534 17.7392 68.8755 17.5474 69.6855 17.5474C70.4956 17.5474 71.2564 17.725 71.8657 18.0837C72.475 18.4425 72.9435 18.9397 73.2781 19.5755C73.6092 20.2113 73.7782 20.975 73.7782 21.8594V22.4917L66.6108 22.5094L66.646 21.181H71.7354C71.7354 20.602 71.5523 20.1367 71.186 19.7815C70.8197 19.4299 70.3266 19.2523 69.7067 19.2523C69.2206 19.2523 68.8121 19.3553 68.481 19.5578C68.1499 19.7638 67.8963 20.0693 67.7273 20.4777C67.5582 20.8862 67.4737 21.387 67.4737 21.9766C67.4737 22.8859 67.6674 23.575 68.0583 24.0403C68.4493 24.5056 69.0234 24.74 69.7912 24.74C70.3547 24.74 70.8197 24.6335 71.186 24.4168C71.5523 24.2001 71.7918 23.8947 71.9045 23.4968H73.8134C73.6338 24.4168 73.1865 25.1378 72.468 25.6635C71.753 26.1856 70.8478 26.4485 69.756 26.4485V26.452ZM77.4976 26.2318H75.4336V17.8102H77.3426L77.5116 18.9007C77.7723 18.4815 78.1386 18.1512 78.6176 17.9132C79.0966 17.6753 79.6179 17.5545 80.1814 17.5545C81.231 17.5545 82.0199 17.8671 82.5553 18.4922C83.0906 19.1173 83.3583 19.9698 83.3583 21.0496V26.2318H81.2944V21.5433C81.2944 20.84 81.1359 20.3143 80.8224 19.9662C80.5054 19.6182 80.0792 19.4477 79.5368 19.4477C78.8958 19.4477 78.3922 19.6537 78.0329 20.0621C77.6737 20.4706 77.4905 21.0176 77.4905 21.6996V26.2354L77.4976 26.2318ZM84.5664 17.8102H89.8425V19.5507H84.5664V17.8102ZM88.2329 26.2318H86.1689V15.1854H88.2329V26.2318Z" fill="url(#paint1_linear_500_6753)"/>
<path d="M93.6111 13.7682V26.2318H91.4486V13.7682H93.6111ZM91.8184 26.2318V24.2214H98.7675V26.2318H91.8184Z" fill="#162456"/>
<path d="M101.251 16.1231C100.902 16.1231 100.606 16.0023 100.363 15.7572C100.12 15.5121 100 15.2138 100 14.8621C100 14.5105 100.12 14.2157 100.363 13.9742C100.606 13.7362 100.902 13.6154 101.251 13.6154C101.599 13.6154 101.895 13.7362 102.138 13.9742C102.381 14.2121 102.501 14.5069 102.501 14.8621C102.501 15.2173 102.381 15.5121 102.138 15.7572C101.895 16.0023 101.599 16.1231 101.251 16.1231ZM100.236 26.2318V17.8102H102.3V26.2318H100.236Z" fill="#162456"/>
<path d="M106.491 26.2318H104.427V17.8102H106.336L106.506 18.9007C106.766 18.4816 107.132 18.1512 107.611 17.9132C108.09 17.6753 108.612 17.5545 109.175 17.5545C110.225 17.5545 111.014 17.8671 111.549 18.4922C112.085 19.1173 112.352 19.9698 112.352 21.0496V26.2318H110.288V21.5433C110.288 20.84 110.13 20.3143 109.816 19.9663C109.499 19.6182 109.073 19.4477 108.531 19.4477C107.89 19.4477 107.386 19.6537 107.027 20.0622C106.668 20.4706 106.484 21.0176 106.484 21.6996V26.2354L106.491 26.2318Z" fill="#162456"/>
<path d="M116.466 26.2318H114.42V13.5479H116.466V21.3408L119.713 17.8102H122.299L119.122 21.1526L122.232 26.2318H119.865L117.685 22.687L116.466 23.9657V26.2318Z" fill="#162456"/>
<defs>
<linearGradient id="paint0_linear_500_6753" x1="40" y1="-2.38419e-06" x2="0" y2="40" gradientUnits="userSpaceOnUse">
<stop stop-color="#193CB8"/>
<stop offset="0.89" stop-color="#8200DB"/>
</linearGradient>
<linearGradient id="paint1_linear_500_6753" x1="47.9965" y1="20.1119" x2="89.839" y2="20.1119" gradientUnits="userSpaceOnUse">
<stop stop-color="#8200DB"/>
<stop offset="1" stop-color="#193CB8"/>
</linearGradient>
</defs>
</svg>
